<svg width="421" height="215" viewBox="0 0 421 215" fill="none" xmlns="http://www.w3.org/2000/svg">
<path d="M300.5 141.458L299.66 139.103L300.5 141.458ZM420.5 198.958L395.008 185.412L396.023 214.262L420.5 198.958ZM0.825979 13.6924C19.497 46.5769 56.8525 92.4726 108.386 123.488C159.995 154.548 225.9 170.712 301.34 143.813L299.66 139.103C225.9 165.404 161.555 149.651 110.964 119.204C60.2975 88.7102 23.503 43.5059 5.17402 11.2237L0.825979 13.6924ZM301.34 143.813C348.208 127.101 371.27 105.641 377.487 83.8068C383.745 61.8289 372.647 40.651 354.061 25.341C335.443 10.0047 308.845 0.089134 282.708 0.513082C256.487 0.938399 230.603 11.7919 213.889 38.1181L218.111 40.798C233.775 16.1243 257.956 5.91523 282.789 5.51242C307.707 5.10825 333.156 14.599 350.882 29.2002C368.639 43.8276 378.179 63.1185 372.678 82.4375C367.137 101.9 346.042 122.565 299.66 139.103L301.34 143.813ZM213.889 38.1181C198.51 62.3422 195.791 84.8926 202.33 105.073C208.833 125.142 224.369 142.486 244.763 156.691C285.529 185.084 346.589 201.561 397.974 202.249L398.041 197.249C347.442 196.572 287.408 180.3 247.621 152.588C227.738 138.739 213.133 122.191 207.087 103.532C201.076 84.9842 203.399 63.9705 218.111 40.798L213.889 38.1181Z" fill="white"/>
</svg>
